#format: frame checksums
#version: 2
#hash: MD5
#extradata 0,                              42, e89deaac1c1a77d78033d7d9c66b8264
#tb 0: 1/61440
#media_type 0: video
#codec_id 0: ffv1
#dimensions 0: 320x180
#sar 0: 0/1
#stream#, dts,        pts, duration,     size, hash
0,          0,          0,     4096,     6593, b94433802ad2f7b12aaf67f6834ab468
0,       4096,       4096,     4096,     7282, 13a41e43e91d925055e802c5c5754c83
0,       8192,       8192,     4096,     6430, 38304eb0f53c9ab01daec04c8447bad4
0,      12288,      12288,     4096,     7720, 130cee03cc8f8f42bcbd6fc0a0455823
0,      16384,      16384,     4096,     7194, f0cab1d9bffe6232da43664756889239
0,      20480,      20480,     4096,     8217, cd7f718c5b8c7085fdb34a3b407b7598
0,      24576,      24576,     4096,     7460, e229ecf9fd7efd6bb55f6be8d7f4c472
0,      28672,      28672,     4096,     8265, cb31aae709a76eae7d36ac212f01e2db
0,      32768,      32768,     4096,     8358, 1192a357c4ece4ff8ee6bd4a12c4c1e7
0,      36864,      36864,     4096,     7673, 52e64140d47383d95447a262578552f9
0,      40960,      40960,     4096,     8238, bf19ead04d53d2ea32758c7b785e03ce
0,      45056,      45056,     4096,     8385, 4a4ba325eb8ab689f96a28b29e38b90d
0,      49152,      49152,     4096,     7739, 0dc5b6d5c8b663ed29790a75ed0a05ea
0,      53248,      53248,     4096,     8711, 37c9f32d12d17ab7dbc58efd8dc2a3db
0,      57344,      57344,     4096,     8375, 879dd3793333f192a3e4cdfa82f2b034
0,      61440,      61440,     4096,     7950, b1f16d70871e835effa0c407b8cda4c2
0,      65536,      65536,     4096,     6972, 69c8d4d16e18894a487c6fe4277dd0d5
0,      69632,      69632,     4096,     7709, 778d1814e531869c42b0b8d8edc44722
0,      73728,      73728,     4096,     7874, 94cd7f85127d4cc89321ab378d02f1ca
0,      77824,      77824,     4096,     7142, 2f4b4535c3034af4e5cce74b9c7a03bd
0,      81920,      81920,     4096,     8099, fd61dd15a777bd7310624a8a911837c6
0,      86016,      86016,     4096,     8301, 5f4eaeaec3543371c283e1369b3ceedf
0,      90112,      90112,     4096,     7570, d026d2b4b0da673e2aab8839bf7a9c98
0,      94208,      94208,     4096,     8609, 115c471fcd0adcfd2789746682261487
0,      98304,      98304,     4096,     7911, 8c7e7c053615d50ecee0ecf44c6244a7
0,     102400,     102400,     4096,     8323, 7457abffa602f49eb7dbce47983c7332
0,     106496,     106496,     4096,     7568, 9651d3cf168f2e87a8259ed1fad2c500
0,     110592,     110592,     4096,     8440, 5de9099e8587e128483811d11b515fca
0,     114688,     114688,     4096,     8463, 89f993a7a76ef4591dc11cd5abdb8313
0,     118784,     118784,     4096,     7949, f1f65e6f78eb720bd0cdf2622b7c95c7
0,     122880,     122880,     4096,     8165, dfb3f8f9f29eee7dc75d80086d0bf2cb
0,     126976,     126976,     4096,     8424, 5fd48eaaada4f3332af72fb367223134
0,     131072,     131072,     4096,     7787, b55d490c6d79d05bb72cd86295ac533c
0,     135168,     135168,     4096,     8359, 2a38edff4a06e6e9e8e516715c441164
0,     139264,     139264,     4096,     8037, 40ce9d1beff103a6e2846400248e3b24
0,     143360,     143360,     4096,     6955, c6c93a7a7485e5fc162f47bcab7bbde0
0,     147456,     147456,     4096,     6008, 72e5d48830b72d1fe97eed3ccbd09f90
0,     151552,     151552,     4096,     7104, c491572f1c69832e8d5d8bac3498cbae
0,     155648,     155648,     4096,     7148, 623a1cdb4902b19aa6f885e1b615dc66
0,     159744,     159744,     4096,     6598, af4038c721120af43cb3dc963b857c48
0,     163840,     163840,     4096,     6913, 5a4adc44fe16c76b3cb6c8b93dde4c07
0,     167936,     167936,     4096,     7103, 9ba063a36821958262e43062ea67936c
0,     172032,     172032,     4096,     6151, a4a5a06a219000c9e787d219a0f6343f
0,     176128,     176128,     4096,     7059, e5e3114798aebbeb1db96acc15cc745f
0,     180224,     180224,     4096,     6713, 8fa7e2e36093a46e7ef6a85602686b34
